<?xml version="1.0" encoding="UTF-8"?><svg id="Layer_1" xmlns="http://www.w3.org/2000/svg" width="4.21in" height="2.55in" viewBox="0 0 303.02 183.68"><path d="M71.5,61.78L.5,106.96h71v-45.18Z" style="fill:#bed7f0;"/><path d="M71.5,61.78H.5v54.86h71v-54.86ZM.5,106.96h71" style="fill:none; stroke:#1e3362; stroke-linecap:round; stroke-linejoin:round;"/><path d="M55.36,129.55v3.23H16.64v-3.23l12.91-4.84v-8.07h12.91v8.07l12.91,4.84Z" style="fill:none; stroke:#1e3362; stroke-linecap:round; stroke-linejoin:round;"/><path d="M8.15,54.45l1.23.31c-.26,1.01-.72,1.78-1.39,2.31-.67.53-1.49.8-2.46.8s-1.82-.2-2.45-.61c-.63-.41-1.11-1-1.43-1.77-.33-.77-.49-1.61-.49-2.49,0-.97.19-1.81.56-2.54.37-.72.9-1.27,1.58-1.64.68-.38,1.44-.56,2.26-.56.93,0,1.71.24,2.35.71s1.08,1.14,1.33,2l-1.21.29c-.22-.68-.53-1.17-.94-1.48s-.93-.46-1.55-.46c-.72,0-1.31.17-1.79.51-.48.34-.82.8-1.01,1.38-.19.58-.29,1.17-.29,1.79,0,.79.12,1.48.35,2.07.23.59.59,1.03,1.08,1.32s1.01.44,1.58.44c.69,0,1.27-.2,1.75-.6.48-.4.8-.99.97-1.77Z" style="fill:#6d6e71;"/><path d="M10.73,57.71v-9.31h1.14v9.31h-1.14Z" style="fill:#6d6e71;"/><path d="M13.65,49.72v-1.31h1.14v1.31h-1.14ZM13.65,57.71v-6.74h1.14v6.74h-1.14Z" style="fill:#6d6e71;"/><path d="M21.14,55.54l1.18.15c-.19.69-.53,1.23-1.04,1.61-.5.38-1.15.57-1.93.57-.99,0-1.77-.3-2.34-.91-.58-.61-.87-1.46-.87-2.55s.29-2.01.88-2.64,1.34-.94,2.27-.94,1.64.31,2.21.92c.57.61.86,1.48.86,2.59,0,.07,0,.17,0,.3h-5.03c.04.74.25,1.31.63,1.7s.85.59,1.41.59c.42,0,.78-.11,1.07-.33.3-.22.53-.57.7-1.05ZM17.39,53.69h3.76c-.05-.57-.19-.99-.43-1.28-.36-.44-.84-.66-1.42-.66-.52,0-.97.18-1.32.53s-.56.82-.59,1.41Z" style="fill:#6d6e71;"/><path d="M23.76,57.71v-6.74h1.03v.96c.5-.74,1.21-1.11,2.15-1.11.41,0,.78.07,1.12.22.34.15.6.34.76.57s.29.52.36.84c.04.21.06.58.06,1.11v4.15h-1.14v-4.1c0-.47-.04-.81-.13-1.04-.09-.23-.25-.42-.47-.55-.23-.14-.49-.21-.8-.21-.49,0-.91.15-1.26.46s-.53.9-.53,1.76v3.68h-1.14Z" style="fill:#6d6e71;"/><path d="M33.48,56.69l.17,1.01c-.32.07-.61.1-.86.1-.42,0-.74-.07-.96-.2s-.39-.3-.48-.52c-.09-.21-.14-.66-.14-1.35v-3.88h-.84v-.89h.84v-1.67l1.14-.69v2.35h1.15v.89h-1.15v3.94c0,.33.02.54.06.63s.11.17.2.22.22.08.39.08c.13,0,.29-.01.5-.04Z" style="fill:#6d6e71;"/><path d="M161.83,14.73h-71.5v71.5h71.5V14.73Z" style="fill:none; stroke:#58595b; stroke-linecap:round; stroke-linejoin:round; stroke-width:.25px;"/><path d="M102.07,30.96v-8.59h3.24c.57,0,1.01.03,1.31.08.42.07.78.2,1.06.4s.51.47.69.83.26.75.26,1.17c0,.73-.23,1.35-.7,1.85s-1.3.76-2.52.76h-2.2v3.49h-1.14ZM103.21,26.46h2.22c.73,0,1.26-.14,1.56-.41s.46-.66.46-1.15c0-.36-.09-.67-.27-.92s-.42-.42-.72-.51c-.19-.05-.54-.08-1.06-.08h-2.2v3.07Z" style="fill:#231f20;"/><path d="M109.73,26.78c0-1.43.38-2.54,1.15-3.35s1.75-1.21,2.96-1.21c.79,0,1.51.19,2.14.57s1.12.91,1.46,1.58.5,1.45.5,2.31-.18,1.65-.53,2.34-.85,1.21-1.49,1.56-1.34.53-2.09.53c-.81,0-1.53-.2-2.17-.59s-1.12-.92-1.45-1.6-.49-1.39-.49-2.14ZM110.9,26.8c0,1.04.28,1.85.83,2.45s1.25.89,2.09.89,1.56-.3,2.11-.9.83-1.46.83-2.56c0-.7-.12-1.31-.35-1.83s-.58-.93-1.04-1.21-.97-.43-1.53-.43c-.8,0-1.5.28-2.08.83s-.87,1.48-.87,2.77Z" style="fill:#231f20;"/><path d="M119.02,28.2l1.07-.09c.05.43.17.78.35,1.06s.47.5.86.67.83.25,1.32.25c.43,0,.82-.06,1.15-.19s.58-.31.74-.53.24-.47.24-.74-.08-.5-.23-.71-.41-.37-.77-.51c-.23-.09-.74-.23-1.53-.42s-1.34-.37-1.66-.54c-.41-.21-.72-.48-.92-.8s-.3-.67-.3-1.07c0-.43.12-.84.37-1.22s.61-.66,1.08-.86,1-.29,1.58-.29c.64,0,1.2.1,1.68.31s.86.51,1.12.91.4.85.42,1.35l-1.09.08c-.06-.54-.26-.95-.59-1.23s-.84-.42-1.5-.42-1.19.13-1.5.38-.47.56-.47.91c0,.31.11.56.33.76.22.2.79.4,1.71.61s1.56.39,1.9.55c.5.23.87.52,1.11.88s.36.76.36,1.22-.13.89-.39,1.29-.64.72-1.13.94-1.04.34-1.66.34c-.78,0-1.43-.11-1.95-.34s-.94-.57-1.24-1.02-.46-.97-.47-1.54Z" style="fill:#231f20;"/><path d="M129.6,30.96v-7.58h-2.83v-1.01h6.81v1.01h-2.84v7.58h-1.14Z" style="fill:#231f20;"/><path d="M106.09,43.59v-1.01h3.64s0,3.18,0,3.18c-.56.45-1.13.78-1.73,1s-1.2.34-1.83.34c-.84,0-1.61-.18-2.3-.54s-1.21-.88-1.56-1.57-.53-1.45-.53-2.29.17-1.62.52-2.34.85-1.26,1.51-1.61,1.41-.53,2.27-.53c.62,0,1.18.1,1.68.3s.9.48,1.18.84.5.83.65,1.41l-1.03.28c-.13-.44-.29-.78-.48-1.03s-.46-.45-.82-.6-.75-.23-1.18-.23c-.52,0-.97.08-1.35.24s-.68.37-.92.62-.41.54-.54.85c-.22.53-.33,1.11-.33,1.73,0,.77.13,1.41.4,1.92s.65.9,1.15,1.15,1.04.38,1.61.38c.49,0,.97-.09,1.44-.28s.82-.39,1.07-.61v-1.6h-2.53Z" style="fill:#231f20;"/><path d="M111.43,46.96v-8.59h6.21v1.01h-5.07v2.63h4.75v1.01h-4.75v2.92h5.27v1.01h-6.41Z" style="fill:#231f20;"/><path d="M121.59,46.96v-7.58h-2.83v-1.01h6.81v1.01h-2.84v7.58h-1.14Z" style="fill:#231f20;"/><path d="M102.07,62.96v-8.59h3.24c.57,0,1.01.03,1.31.08.42.07.78.2,1.06.4s.51.47.69.83.26.75.26,1.17c0,.73-.23,1.35-.7,1.85s-1.3.76-2.52.76h-2.2v3.49h-1.14ZM103.21,58.46h2.22c.73,0,1.26-.14,1.56-.41s.46-.66.46-1.15c0-.36-.09-.67-.27-.92s-.42-.42-.72-.51c-.19-.05-.54-.08-1.06-.08h-2.2v3.07Z" style="fill:#231f20;"/><path d="M115.71,54.37h1.14v4.96c0,.86-.1,1.55-.29,2.06s-.55.92-1.06,1.24-1.18.48-2.01.48-1.46-.14-1.97-.42-.88-.68-1.1-1.2-.33-1.24-.33-2.15v-4.96h1.14v4.96c0,.75.07,1.3.21,1.65s.38.63.71.82.75.29,1.24.29c.84,0,1.43-.19,1.79-.57s.53-1.11.53-2.19v-4.96Z" style="fill:#231f20;"/><path d="M120.92,62.96v-7.58h-2.83v-1.01h6.81v1.01h-2.84v7.58h-1.14Z" style="fill:#231f20;"/><path d="M102.07,78.96v-8.59h2.96c.67,0,1.18.04,1.53.12.49.11.91.32,1.26.62.45.38.79.87,1.02,1.47s.34,1.28.34,2.04c0,.65-.08,1.23-.23,1.73s-.35.92-.59,1.25-.5.59-.78.78-.62.33-1.03.43-.86.15-1.38.15h-3.1ZM103.21,77.95h1.83c.57,0,1.01-.05,1.33-.16s.58-.25.77-.45c.27-.27.48-.63.63-1.09s.23-1.01.23-1.66c0-.9-.15-1.59-.44-2.07s-.65-.81-1.08-.97c-.3-.12-.79-.18-1.47-.18h-1.8v6.56Z" style="fill:#231f20;"/><path d="M110.76,78.96v-8.59h6.21v1.01h-5.07v2.63h4.75v1.01h-4.75v2.92h5.27v1.01h-6.41Z" style="fill:#231f20;"/><path d="M118.69,78.96v-8.59h1.14v7.58h4.23v1.01h-5.37Z" style="fill:#231f20;"/><path d="M125.44,78.96v-8.59h6.21v1.01h-5.07v2.63h4.75v1.01h-4.75v2.92h5.27v1.01h-6.41Z" style="fill:#231f20;"/><path d="M135.6,78.96v-7.58h-2.83v-1.01h6.81v1.01h-2.84v7.58h-1.14Z" style="fill:#231f20;"/><path d="M140.77,78.96v-8.59h6.21v1.01h-5.07v2.63h4.75v1.01h-4.75v2.92h5.27v1.01h-6.41Z" style="fill:#231f20;"/><path d="M91.21,11.16V1.85h1.23v3.82h4.84V1.85h1.23v9.31h-1.23v-4.39h-4.84v4.39h-1.23Z" style="fill:#6d6e71;"/><path d="M102.93,11.16V2.95h-3.07v-1.1h7.38v1.1h-3.08v8.21h-1.23Z" style="fill:#6d6e71;"/><path d="M110.87,11.16V2.95h-3.07v-1.1h7.38v1.1h-3.08v8.21h-1.23Z" style="fill:#6d6e71;"/><path d="M116.44,11.16V1.85h3.51c.62,0,1.09.03,1.42.09.46.08.84.22,1.15.43.31.21.56.51.75.9s.28.81.28,1.27c0,.79-.25,1.46-.75,2.01-.5.55-1.41.82-2.73.82h-2.39v3.78h-1.23ZM117.67,6.27h2.41c.79,0,1.36-.15,1.69-.44s.5-.71.5-1.25c0-.39-.1-.72-.29-1-.2-.28-.46-.46-.78-.55-.21-.06-.59-.08-1.15-.08h-2.38v3.33Z" style="fill:#6d6e71;"/><path d="M302.51,75.59h-86.01v9.86h86.02v-9.86ZM302.51,99.26h-86.01v9.86h86.02v-9.86ZM302.51,122.92h-86.01v9.86h86.02v-9.86Z" style="fill:#bed7f0;"/><path d="M302.51,61.79h-86.01v23.66h86.02v-23.66ZM216.51,61.78h86.01M290.78,69.67v7.89M282.97,69.67v7.89M275.15,69.67v7.89M302.51,85.45h-86.01v23.67h86.02v-23.67ZM290.78,93.34v7.89M282.97,93.34v7.89M275.15,93.34v7.89M302.51,109.12h-86.01v23.67h86.02v-23.67ZM290.78,117v7.89M282.97,117v7.89M275.15,117v7.89" style="fill:none; stroke:#1e3362; stroke-linecap:round; stroke-linejoin:round;"/><path d="M233.12,68.68l-4.88,4.94,4.89,4.93,4.89-4.93-4.89-4.93ZM233.12,92.35l-4.89,4.93,4.89,4.93,4.89-4.93-4.89-4.93ZM233.12,116.02l-4.89,4.93,4.89,4.93,4.89-4.93-4.89-4.93Z" style="fill:none; stroke:#1e3362; stroke-linecap:round; stroke-linejoin:round;"/><path d="M217.09,54.72l1.16-.1c.05.47.18.85.38,1.15.2.3.51.54.94.72.42.18.9.28,1.43.28.47,0,.88-.07,1.24-.21s.63-.33.8-.57c.18-.24.26-.51.26-.8s-.08-.55-.25-.76c-.17-.22-.45-.4-.84-.55-.25-.1-.8-.25-1.66-.45-.86-.21-1.45-.4-1.8-.58-.44-.23-.78-.52-.99-.87-.22-.35-.33-.73-.33-1.16,0-.47.13-.91.4-1.32.27-.41.66-.72,1.17-.93.51-.21,1.08-.32,1.71-.32.69,0,1.3.11,1.83.33.53.22.93.55,1.22.98.28.43.44.92.46,1.47l-1.18.09c-.06-.59-.28-1.03-.64-1.33s-.91-.45-1.62-.45-1.29.14-1.63.41c-.34.27-.51.6-.51.99,0,.33.12.61.36.83.24.22.86.44,1.86.66,1,.23,1.69.42,2.06.59.54.25.94.57,1.2.95.26.38.39.82.39,1.32s-.14.96-.43,1.4c-.28.44-.69.78-1.22,1.02-.53.24-1.13.36-1.79.36-.84,0-1.55-.12-2.12-.37s-1.02-.61-1.34-1.11c-.32-.49-.49-1.05-.51-1.67Z" style="fill:#6d6e71;"/><path d="M230.65,55.54l1.18.15c-.19.69-.53,1.23-1.04,1.61-.5.38-1.15.57-1.93.57-.99,0-1.77-.3-2.34-.91-.58-.61-.87-1.46-.87-2.55s.29-2.01.88-2.64,1.34-.94,2.27-.94,1.64.31,2.21.92c.57.61.86,1.48.86,2.59,0,.07,0,.17,0,.3h-5.03c.04.74.25,1.31.63,1.7s.85.59,1.41.59c.42,0,.78-.11,1.07-.33.3-.22.53-.57.7-1.05ZM226.9,53.69h3.76c-.05-.57-.19-.99-.43-1.28-.36-.44-.84-.66-1.42-.66-.52,0-.97.18-1.32.53s-.56.82-.59,1.41Z" style="fill:#6d6e71;"/><path d="M233.25,57.71v-6.74h1.03v1.02c.26-.48.5-.79.73-.95.22-.15.47-.23.73-.23.39,0,.78.12,1.17.37l-.39,1.06c-.28-.17-.56-.25-.84-.25-.25,0-.47.08-.67.23-.2.15-.34.36-.42.62-.13.41-.19.85-.19,1.33v3.53h-1.14Z" style="fill:#6d6e71;"/><path d="M239.47,57.71l-2.56-6.74h1.21l1.45,4.04c.16.44.3.89.43,1.36.1-.36.24-.78.43-1.28l1.5-4.11h1.17l-2.55,6.74h-1.07Z" style="fill:#6d6e71;"/><path d="M248.71,55.54l1.18.15c-.19.69-.53,1.23-1.04,1.61-.5.38-1.15.57-1.93.57-.99,0-1.77-.3-2.34-.91-.58-.61-.87-1.46-.87-2.55s.29-2.01.88-2.64,1.34-.94,2.27-.94,1.64.31,2.21.92c.57.61.86,1.48.86,2.59,0,.07,0,.17,0,.3h-5.03c.04.74.25,1.31.63,1.7s.85.59,1.41.59c.42,0,.78-.11,1.07-.33.3-.22.53-.57.7-1.05ZM244.96,53.69h3.76c-.05-.57-.19-.99-.43-1.28-.36-.44-.84-.66-1.42-.66-.52,0-.97.18-1.32.53s-.56.82-.59,1.41Z" style="fill:#6d6e71;"/><path d="M251.31,57.71v-6.74h1.03v1.02c.26-.48.5-.79.73-.95.22-.15.47-.23.73-.23.39,0,.78.12,1.17.37l-.39,1.06c-.28-.17-.56-.25-.84-.25-.25,0-.47.08-.67.23-.2.15-.34.36-.42.62-.13.41-.19.85-.19,1.33v3.53h-1.14Z" style="fill:#6d6e71;"/><line x1="167.81" y1="75.51" x2="203.65" y2="75.51" style="fill:none; stroke:#bed7f0; stroke-linecap:round; stroke-miterlimit:10; stroke-width:2px;"/><polygon points="200 80.33 202.05 75.51 200 70.7 211.41 75.51 200 80.33" style="fill:#bed7f0;"/><path d="M161.75,112.05h-71.5v71.5h71.5v-71.5Z" style="fill:none; stroke:#58595b; stroke-linecap:round; stroke-linejoin:round; stroke-width:.25px;"/><path d="M91.08,108.48v-9.31h3.21c.72,0,1.28.04,1.66.13.53.12.99.34,1.37.67.49.41.86.94,1.1,1.59.24.65.37,1.38.37,2.21,0,.71-.08,1.33-.25,1.88-.17.55-.38,1-.63,1.35-.26.36-.54.64-.85.84-.31.21-.68.36-1.11.47s-.93.16-1.49.16h-3.36ZM92.32,107.38h1.99c.61,0,1.1-.06,1.44-.17.35-.11.63-.27.83-.48.29-.29.52-.68.68-1.18.16-.49.24-1.09.24-1.79,0-.97-.16-1.72-.48-2.24-.32-.52-.71-.87-1.16-1.05-.33-.13-.86-.19-1.59-.19h-1.96v7.11Z" style="fill:#6d6e71;"/><path d="M104.73,107.65c-.42.36-.83.61-1.22.76s-.81.22-1.26.22c-.74,0-1.31-.18-1.71-.54-.4-.36-.6-.82-.6-1.39,0-.33.08-.63.23-.9.15-.27.35-.49.59-.66s.52-.29.82-.37c.22-.06.56-.12,1.02-.17.92-.11,1.6-.24,2.04-.39,0-.16,0-.26,0-.3,0-.47-.11-.79-.32-.98-.29-.26-.73-.39-1.3-.39-.54,0-.93.09-1.19.28-.26.19-.45.52-.57,1l-1.12-.15c.1-.48.27-.86.5-1.16.23-.29.57-.52,1.01-.68.44-.16.95-.24,1.53-.24s1.04.07,1.4.2c.36.14.62.31.79.51.17.21.29.46.36.78.04.19.06.55.06,1.05v1.52c0,1.06.02,1.73.07,2.02.05.28.15.55.29.81h-1.19c-.12-.24-.19-.51-.23-.83ZM104.63,105.1c-.41.17-1.04.31-1.87.43-.47.07-.8.14-1,.23s-.34.21-.45.37c-.11.16-.16.34-.16.54,0,.3.12.56.35.76s.57.3,1.01.3.83-.1,1.17-.29c.34-.19.59-.46.76-.79.12-.26.18-.64.18-1.14v-.42Z" style="fill:#6d6e71;"/><path d="M110.05,107.46l.17,1.01c-.32.07-.61.1-.86.1-.42,0-.74-.07-.96-.2s-.39-.3-.48-.52c-.09-.21-.14-.66-.14-1.35v-3.88h-.84v-.89h.84v-1.67l1.14-.69v2.35h1.15v.89h-1.15v3.94c0,.33.02.54.06.63s.11.17.2.22.22.08.39.08c.13,0,.29-.01.5-.04Z" style="fill:#6d6e71;"/><path d="M115.57,107.65c-.42.36-.83.61-1.22.76s-.81.22-1.26.22c-.74,0-1.31-.18-1.71-.54-.4-.36-.6-.82-.6-1.39,0-.33.08-.63.23-.9.15-.27.35-.49.59-.66s.52-.29.82-.37c.22-.06.56-.12,1.02-.17.92-.11,1.6-.24,2.04-.39,0-.16,0-.26,0-.3,0-.47-.11-.79-.32-.98-.29-.26-.73-.39-1.3-.39-.54,0-.93.09-1.19.28-.26.19-.45.52-.57,1l-1.12-.15c.1-.48.27-.86.5-1.16.23-.29.57-.52,1.01-.68.44-.16.95-.24,1.53-.24s1.04.07,1.4.2c.36.14.62.31.79.51.17.21.29.46.36.78.04.19.06.55.06,1.05v1.52c0,1.06.02,1.73.07,2.02.05.28.15.55.29.81h-1.19c-.12-.24-.19-.51-.23-.83ZM115.47,105.1c-.41.17-1.04.31-1.87.43-.47.07-.8.14-1,.23s-.34.21-.45.37c-.11.16-.16.34-.16.54,0,.3.12.56.35.76s.57.3,1.01.3.83-.1,1.17-.29c.34-.19.59-.46.76-.79.12-.26.18-.64.18-1.14v-.42Z" style="fill:#6d6e71;"/><line x1="134.48" y1="147.81" x2="97.2" y2="147.81" style="fill:none; stroke:#bed7f0; stroke-miterlimit:10; stroke-width:2px;"/><circle cx="147.35" cy="147.81" r="6.83" style="fill:none; stroke:#58595b; stroke-miterlimit:10; stroke-width:.5px;"/><line x1="116.9" y1="167.87" x2="154.18" y2="167.87" style="fill:none; stroke:#bed7f0; stroke-miterlimit:10; stroke-width:2px;"/><circle cx="104.03" cy="167.87" r="6.83" style="fill:none; stroke:#58595b; stroke-miterlimit:10; stroke-width:.5px;"/><line x1="116.9" y1="126.53" x2="154.18" y2="126.53" style="fill:none; stroke:#bed7f0; stroke-miterlimit:10; stroke-width:2px;"/><circle cx="104.03" cy="126.53" r="6.83" style="fill:none; stroke:#58595b; stroke-miterlimit:10; stroke-width:.5px;"/><line x1="210.44" y1="122.92" x2="175.57" y2="122.92" style="fill:none; stroke:#bed7f0; stroke-linecap:round; stroke-miterlimit:10; stroke-width:2px;"/><polygon points="179.22 118.11 177.17 122.92 179.22 127.73 167.81 122.92 179.22 118.11" style="fill:#bed7f0;"/></svg>