<?xml version="1.0" encoding="UTF-8"?><svg id="Layer_1" xmlns="http://www.w3.org/2000/svg" width="4.21in" height="2.55in" viewBox="0 0 303.02 183.68"><path d="M71.5,61.78L.5,106.96h71v-45.18Z" style="fill:#bed7f0;"/><path d="M71.5,61.78H.5v54.86h71v-54.86ZM.5,106.96h71" style="fill:none; stroke:#1e3362; stroke-linecap:round; stroke-linejoin:round;"/><path d="M55.36,129.55v3.23H16.64v-3.23l12.91-4.84v-8.07h12.91v8.07l12.91,4.84Z" style="fill:none; stroke:#1e3362; stroke-linecap:round; stroke-linejoin:round;"/><path d="M8.15,54.45l1.23.31c-.26,1.01-.72,1.78-1.39,2.31-.67.53-1.49.8-2.46.8s-1.82-.2-2.45-.61c-.63-.41-1.11-1-1.43-1.77-.33-.77-.49-1.61-.49-2.49,0-.97.19-1.81.56-2.54.37-.72.9-1.27,1.58-1.64.68-.38,1.44-.56,2.26-.56.93,0,1.71.24,2.35.71s1.08,1.14,1.33,2l-1.21.29c-.22-.68-.53-1.17-.94-1.48s-.93-.46-1.55-.46c-.72,0-1.31.17-1.79.51-.48.34-.82.8-1.01,1.38-.19.58-.29,1.17-.29,1.79,0,.79.12,1.48.35,2.07.23.59.59,1.03,1.08,1.32s1.01.44,1.58.44c.69,0,1.27-.2,1.75-.6.48-.4.8-.99.97-1.77Z" style="fill:#6d6e71;"/><path d="M10.73,57.71v-9.31h1.14v9.31h-1.14Z" style="fill:#6d6e71;"/><path d="M13.65,49.72v-1.31h1.14v1.31h-1.14ZM13.65,57.71v-6.74h1.14v6.74h-1.14Z" style="fill:#6d6e71;"/><path d="M21.14,55.54l1.18.15c-.19.69-.53,1.23-1.04,1.61-.5.38-1.15.57-1.93.57-.99,0-1.77-.3-2.34-.91-.58-.61-.87-1.46-.87-2.55s.29-2.01.88-2.64,1.34-.94,2.27-.94,1.64.31,2.21.92c.57.61.86,1.48.86,2.59,0,.07,0,.17,0,.3h-5.03c.04.74.25,1.31.63,1.7s.85.59,1.41.59c.42,0,.78-.11,1.07-.33.3-.22.53-.57.7-1.05ZM17.39,53.69h3.76c-.05-.57-.19-.99-.43-1.28-.36-.44-.84-.66-1.42-.66-.52,0-.97.18-1.32.53s-.56.82-.59,1.41Z" style="fill:#6d6e71;"/><path d="M23.76,57.71v-6.74h1.03v.96c.5-.74,1.21-1.11,2.15-1.11.41,0,.78.07,1.12.22.34.15.6.34.76.57s.29.52.36.84c.04.21.06.58.06,1.11v4.15h-1.14v-4.1c0-.47-.04-.81-.13-1.04-.09-.23-.25-.42-.47-.55-.23-.14-.49-.21-.8-.21-.49,0-.91.15-1.26.46s-.53.9-.53,1.76v3.68h-1.14Z" style="fill:#6d6e71;"/><path d="M33.48,56.69l.17,1.01c-.32.07-.61.1-.86.1-.42,0-.74-.07-.96-.2s-.39-.3-.48-.52c-.09-.21-.14-.66-.14-1.35v-3.88h-.84v-.89h.84v-1.67l1.14-.69v2.35h1.15v.89h-1.15v3.94c0,.33.02.54.06.63s.11.17.2.22.22.08.39.08c.13,0,.29-.01.5-.04Z" style="fill:#6d6e71;"/><path d="M161.83,14.73h-71.5v71.5h71.5V14.73Z" style="fill:none; stroke:#58595b; stroke-linecap:round; stroke-linejoin:round; stroke-width:.25px;"/><path d="M102.07,30.96v-8.59h3.24c.57,0,1.01.03,1.31.08.42.07.78.2,1.06.4s.51.47.69.83.26.75.26,1.17c0,.73-.23,1.35-.7,1.85s-1.3.76-2.52.76h-2.2v3.49h-1.14ZM103.21,26.46h2.22c.73,0,1.26-.14,1.56-.41s.46-.66.46-1.15c0-.36-.09-.67-.27-.92s-.42-.42-.72-.51c-.19-.05-.54-.08-1.06-.08h-2.2v3.07Z" style="fill:#808285;"/><path d="M109.73,26.78c0-1.43.38-2.54,1.15-3.35s1.75-1.21,2.96-1.21c.79,0,1.51.19,2.14.57s1.12.91,1.46,1.58.5,1.45.5,2.31-.18,1.65-.53,2.34-.85,1.21-1.49,1.56-1.34.53-2.09.53c-.81,0-1.53-.2-2.17-.59s-1.12-.92-1.45-1.6-.49-1.39-.49-2.14ZM110.9,26.8c0,1.04.28,1.85.83,2.45s1.25.89,2.09.89,1.56-.3,2.11-.9.83-1.46.83-2.56c0-.7-.12-1.31-.35-1.83s-.58-.93-1.04-1.21-.97-.43-1.53-.43c-.8,0-1.5.28-2.08.83s-.87,1.48-.87,2.77Z" style="fill:#808285;"/><path d="M119.02,28.2l1.07-.09c.05.43.17.78.35,1.06s.47.5.86.67.83.25,1.32.25c.43,0,.82-.06,1.15-.19s.58-.31.74-.53.24-.47.24-.74-.08-.5-.23-.71-.41-.37-.77-.51c-.23-.09-.74-.23-1.53-.42s-1.34-.37-1.66-.54c-.41-.21-.72-.48-.92-.8s-.3-.67-.3-1.07c0-.43.12-.84.37-1.22s.61-.66,1.08-.86,1-.29,1.58-.29c.64,0,1.2.1,1.68.31s.86.51,1.12.91.4.85.42,1.35l-1.09.08c-.06-.54-.26-.95-.59-1.23s-.84-.42-1.5-.42-1.19.13-1.5.38-.47.56-.47.91c0,.31.11.56.33.76.22.2.79.4,1.71.61s1.56.39,1.9.55c.5.23.87.52,1.11.88s.36.76.36,1.22-.13.89-.39,1.29-.64.72-1.13.94-1.04.34-1.66.34c-.78,0-1.43-.11-1.95-.34s-.94-.57-1.24-1.02-.46-.97-.47-1.54Z" style="fill:#808285;"/><path d="M129.6,30.96v-7.58h-2.83v-1.01h6.81v1.01h-2.84v7.58h-1.14Z" style="fill:#808285;"/><path d="M106.01,43.81v-1.45h3.74v3.42c-.36.35-.89.66-1.58.93s-1.39.4-2.09.4c-.9,0-1.68-.19-2.35-.57s-1.17-.92-1.51-1.62-.5-1.46-.5-2.29c0-.89.19-1.69.56-2.38s.92-1.23,1.65-1.6c.55-.29,1.24-.43,2.06-.43,1.07,0,1.9.22,2.5.67s.99,1.07,1.16,1.85l-1.72.32c-.12-.42-.35-.75-.68-1s-.75-.37-1.25-.37c-.76,0-1.36.24-1.81.72s-.67,1.19-.67,2.14c0,1.02.23,1.78.68,2.29s1.05.76,1.78.76c.36,0,.73-.07,1.09-.21s.68-.32.94-.52v-1.09h-1.99Z" style="fill:#f15a29;"/><path d="M111.35,46.96v-8.59h6.37v1.45h-4.63v1.9h4.31v1.45h-4.31v2.34h4.8v1.45h-6.53Z" style="fill:#f15a29;"/><path d="M121.29,46.96v-7.14h-2.55v-1.45h6.83v1.45h-2.54v7.14h-1.73Z" style="fill:#f15a29;"/><path d="M102.07,62.96v-8.59h3.24c.57,0,1.01.03,1.31.08.42.07.78.2,1.06.4s.51.47.69.83.26.75.26,1.17c0,.73-.23,1.35-.7,1.85s-1.3.76-2.52.76h-2.2v3.49h-1.14ZM103.21,58.46h2.22c.73,0,1.26-.14,1.56-.41s.46-.66.46-1.15c0-.36-.09-.67-.27-.92s-.42-.42-.72-.51c-.19-.05-.54-.08-1.06-.08h-2.2v3.07Z" style="fill:#808285;"/><path d="M115.71,54.37h1.14v4.96c0,.86-.1,1.55-.29,2.06s-.55.92-1.06,1.24-1.18.48-2.01.48-1.46-.14-1.97-.42-.88-.68-1.1-1.2-.33-1.24-.33-2.15v-4.96h1.14v4.96c0,.75.07,1.3.21,1.65s.38.63.71.82.75.29,1.24.29c.84,0,1.43-.19,1.79-.57s.53-1.11.53-2.19v-4.96Z" style="fill:#808285;"/><path d="M120.92,62.96v-7.58h-2.83v-1.01h6.81v1.01h-2.84v7.58h-1.14Z" style="fill:#808285;"/><path d="M102.07,78.96v-8.59h2.96c.67,0,1.18.04,1.53.12.49.11.91.32,1.26.62.45.38.79.87,1.02,1.47s.34,1.28.34,2.04c0,.65-.08,1.23-.23,1.73s-.35.92-.59,1.25-.5.59-.78.78-.62.33-1.03.43-.86.15-1.38.15h-3.1ZM103.21,77.95h1.83c.57,0,1.01-.05,1.33-.16s.58-.25.77-.45c.27-.27.48-.63.63-1.09s.23-1.01.23-1.66c0-.9-.15-1.59-.44-2.07s-.65-.81-1.08-.97c-.3-.12-.79-.18-1.47-.18h-1.8v6.56Z" style="fill:#808285;"/><path d="M110.76,78.96v-8.59h6.21v1.01h-5.07v2.63h4.75v1.01h-4.75v2.92h5.27v1.01h-6.41Z" style="fill:#808285;"/><path d="M118.69,78.96v-8.59h1.14v7.58h4.23v1.01h-5.37Z" style="fill:#808285;"/><path d="M125.44,78.96v-8.59h6.21v1.01h-5.07v2.63h4.75v1.01h-4.75v2.92h5.27v1.01h-6.41Z" style="fill:#808285;"/><path d="M135.6,78.96v-7.58h-2.83v-1.01h6.81v1.01h-2.84v7.58h-1.14Z" style="fill:#808285;"/><path d="M140.77,78.96v-8.59h6.21v1.01h-5.07v2.63h4.75v1.01h-4.75v2.92h5.27v1.01h-6.41Z" style="fill:#808285;"/><path d="M91.21,11.16V1.85h1.23v3.82h4.84V1.85h1.23v9.31h-1.23v-4.39h-4.84v4.39h-1.23Z" style="fill:#6d6e71;"/><path d="M102.93,11.16V2.95h-3.07v-1.1h7.38v1.1h-3.08v8.21h-1.23Z" style="fill:#6d6e71;"/><path d="M110.87,11.16V2.95h-3.07v-1.1h7.38v1.1h-3.08v8.21h-1.23Z" style="fill:#6d6e71;"/><path d="M116.44,11.16V1.85h3.51c.62,0,1.09.03,1.42.09.46.08.84.22,1.15.43.31.21.56.51.75.9s.28.81.28,1.27c0,.79-.25,1.46-.75,2.01-.5.55-1.41.82-2.73.82h-2.39v3.78h-1.23ZM117.67,6.27h2.41c.79,0,1.36-.15,1.69-.44s.5-.71.5-1.25c0-.39-.1-.72-.29-1-.2-.28-.46-.46-.78-.55-.21-.06-.59-.08-1.15-.08h-2.38v3.33Z" style="fill:#6d6e71;"/><path d="M302.51,75.59h-86.01v9.86h86.02v-9.86ZM302.51,99.26h-86.01v9.86h86.02v-9.86ZM302.51,122.92h-86.01v9.86h86.02v-9.86Z" style="fill:#bed7f0;"/><path d="M302.51,61.79h-86.01v23.66h86.02v-23.66ZM216.51,61.78h86.01M290.78,69.67v7.89M282.97,69.67v7.89M275.15,69.67v7.89M302.51,85.45h-86.01v23.67h86.02v-23.67ZM290.78,93.34v7.89M282.97,93.34v7.89M275.15,93.34v7.89M302.51,109.12h-86.01v23.67h86.02v-23.67ZM290.78,117v7.89M282.97,117v7.89M275.15,117v7.89" style="fill:none; stroke:#1e3362; stroke-linecap:round; stroke-linejoin:round;"/><path d="M233.12,68.68l-4.88,4.94,4.89,4.93,4.89-4.93-4.89-4.93ZM233.12,92.35l-4.89,4.93,4.89,4.93,4.89-4.93-4.89-4.93ZM233.12,116.02l-4.89,4.93,4.89,4.93,4.89-4.93-4.89-4.93Z" style="fill:none; stroke:#1e3362; stroke-linecap:round; stroke-linejoin:round;"/><path d="M217.09,54.72l1.16-.1c.05.47.18.85.38,1.15.2.3.51.54.94.72.42.18.9.28,1.43.28.47,0,.88-.07,1.24-.21s.63-.33.8-.57c.18-.24.26-.51.26-.8s-.08-.55-.25-.76c-.17-.22-.45-.4-.84-.55-.25-.1-.8-.25-1.66-.45-.86-.21-1.45-.4-1.8-.58-.44-.23-.78-.52-.99-.87-.22-.35-.33-.73-.33-1.16,0-.47.13-.91.4-1.32.27-.41.66-.72,1.17-.93.51-.21,1.08-.32,1.71-.32.69,0,1.3.11,1.83.33.53.22.93.55,1.22.98.28.43.44.92.46,1.47l-1.18.09c-.06-.59-.28-1.03-.64-1.33s-.91-.45-1.62-.45-1.29.14-1.63.41c-.34.27-.51.6-.51.99,0,.33.12.61.36.83.24.22.86.44,1.86.66,1,.23,1.69.42,2.06.59.54.25.94.57,1.2.95.26.38.39.82.39,1.32s-.14.96-.43,1.4c-.28.44-.69.78-1.22,1.02-.53.24-1.13.36-1.79.36-.84,0-1.55-.12-2.12-.37s-1.02-.61-1.34-1.11c-.32-.49-.49-1.05-.51-1.67Z" style="fill:#6d6e71;"/><path d="M230.65,55.54l1.18.15c-.19.69-.53,1.23-1.04,1.61-.5.38-1.15.57-1.93.57-.99,0-1.77-.3-2.34-.91-.58-.61-.87-1.46-.87-2.55s.29-2.01.88-2.64,1.34-.94,2.27-.94,1.64.31,2.21.92c.57.61.86,1.48.86,2.59,0,.07,0,.17,0,.3h-5.03c.04.74.25,1.31.63,1.7s.85.59,1.41.59c.42,0,.78-.11,1.07-.33.3-.22.53-.57.7-1.05ZM226.9,53.69h3.76c-.05-.57-.19-.99-.43-1.28-.36-.44-.84-.66-1.42-.66-.52,0-.97.18-1.32.53s-.56.82-.59,1.41Z" style="fill:#6d6e71;"/><path d="M233.25,57.71v-6.74h1.03v1.02c.26-.48.5-.79.73-.95.22-.15.47-.23.73-.23.39,0,.78.12,1.17.37l-.39,1.06c-.28-.17-.56-.25-.84-.25-.25,0-.47.08-.67.23-.2.15-.34.36-.42.62-.13.41-.19.85-.19,1.33v3.53h-1.14Z" style="fill:#6d6e71;"/><path d="M239.47,57.71l-2.56-6.74h1.21l1.45,4.04c.16.44.3.89.43,1.36.1-.36.24-.78.43-1.28l1.5-4.11h1.17l-2.55,6.74h-1.07Z" style="fill:#6d6e71;"/><path d="M248.71,55.54l1.18.15c-.19.69-.53,1.23-1.04,1.61-.5.38-1.15.57-1.93.57-.99,0-1.77-.3-2.34-.91-.58-.61-.87-1.46-.87-2.55s.29-2.01.88-2.64,1.34-.94,2.27-.94,1.64.31,2.21.92c.57.61.86,1.48.86,2.59,0,.07,0,.17,0,.3h-5.03c.04.74.25,1.31.63,1.7s.85.59,1.41.59c.42,0,.78-.11,1.07-.33.3-.22.53-.57.7-1.05ZM244.96,53.69h3.76c-.05-.57-.19-.99-.43-1.28-.36-.44-.84-.66-1.42-.66-.52,0-.97.18-1.32.53s-.56.82-.59,1.41Z" style="fill:#6d6e71;"/><path d="M251.31,57.71v-6.74h1.03v1.02c.26-.48.5-.79.73-.95.22-.15.47-.23.73-.23.39,0,.78.12,1.17.37l-.39,1.06c-.28-.17-.56-.25-.84-.25-.25,0-.47.08-.67.23-.2.15-.34.36-.42.62-.13.41-.19.85-.19,1.33v3.53h-1.14Z" style="fill:#6d6e71;"/><line x1="167.81" y1="75.51" x2="203.65" y2="75.51" style="fill:none; stroke:#bed7f0; stroke-linecap:round; stroke-miterlimit:10; stroke-width:2px;"/><polygon points="200 80.33 202.05 75.51 200 70.7 211.41 75.51 200 80.33" style="fill:#bed7f0;"/><path d="M161.75,112.05h-71.5v71.5h71.5v-71.5Z" style="fill:none; stroke:#58595b; stroke-linecap:round; stroke-linejoin:round; stroke-width:.25px;"/><path d="M91.08,108.48v-9.31h3.21c.72,0,1.28.04,1.66.13.53.12.99.34,1.37.67.49.41.86.94,1.1,1.59.24.65.37,1.38.37,2.21,0,.71-.08,1.33-.25,1.88-.17.55-.38,1-.63,1.35-.26.36-.54.64-.85.84-.31.21-.68.36-1.11.47s-.93.16-1.49.16h-3.36ZM92.32,107.38h1.99c.61,0,1.1-.06,1.44-.17.35-.11.63-.27.83-.48.29-.29.52-.68.68-1.18.16-.49.24-1.09.24-1.79,0-.97-.16-1.72-.48-2.24-.32-.52-.71-.87-1.16-1.05-.33-.13-.86-.19-1.59-.19h-1.96v7.11Z" style="fill:#6d6e71;"/><path d="M104.73,107.65c-.42.36-.83.61-1.22.76s-.81.22-1.26.22c-.74,0-1.31-.18-1.71-.54-.4-.36-.6-.82-.6-1.39,0-.33.08-.63.23-.9.15-.27.35-.49.59-.66s.52-.29.82-.37c.22-.06.56-.12,1.02-.17.92-.11,1.6-.24,2.04-.39,0-.16,0-.26,0-.3,0-.47-.11-.79-.32-.98-.29-.26-.73-.39-1.3-.39-.54,0-.93.09-1.19.28-.26.19-.45.52-.57,1l-1.12-.15c.1-.48.27-.86.5-1.16.23-.29.57-.52,1.01-.68.44-.16.95-.24,1.53-.24s1.04.07,1.4.2c.36.14.62.31.79.51.17.21.29.46.36.78.04.19.06.55.06,1.05v1.52c0,1.06.02,1.73.07,2.02.05.28.15.55.29.81h-1.19c-.12-.24-.19-.51-.23-.83ZM104.63,105.1c-.41.17-1.04.31-1.87.43-.47.07-.8.14-1,.23s-.34.21-.45.37c-.11.16-.16.34-.16.54,0,.3.12.56.35.76s.57.3,1.01.3.83-.1,1.17-.29c.34-.19.59-.46.76-.79.12-.26.18-.64.18-1.14v-.42Z" style="fill:#6d6e71;"/><path d="M110.05,107.46l.17,1.01c-.32.07-.61.1-.86.1-.42,0-.74-.07-.96-.2s-.39-.3-.48-.52c-.09-.21-.14-.66-.14-1.35v-3.88h-.84v-.89h.84v-1.67l1.14-.69v2.35h1.15v.89h-1.15v3.94c0,.33.02.54.06.63s.11.17.2.22.22.08.39.08c.13,0,.29-.01.5-.04Z" style="fill:#6d6e71;"/><path d="M115.57,107.65c-.42.36-.83.61-1.22.76s-.81.22-1.26.22c-.74,0-1.31-.18-1.71-.54-.4-.36-.6-.82-.6-1.39,0-.33.08-.63.23-.9.15-.27.35-.49.59-.66s.52-.29.82-.37c.22-.06.56-.12,1.02-.17.92-.11,1.6-.24,2.04-.39,0-.16,0-.26,0-.3,0-.47-.11-.79-.32-.98-.29-.26-.73-.39-1.3-.39-.54,0-.93.09-1.19.28-.26.19-.45.52-.57,1l-1.12-.15c.1-.48.27-.86.5-1.16.23-.29.57-.52,1.01-.68.44-.16.95-.24,1.53-.24s1.04.07,1.4.2c.36.14.62.31.79.51.17.21.29.46.36.78.04.19.06.55.06,1.05v1.52c0,1.06.02,1.73.07,2.02.05.28.15.55.29.81h-1.19c-.12-.24-.19-.51-.23-.83ZM115.47,105.1c-.41.17-1.04.31-1.87.43-.47.07-.8.14-1,.23s-.34.21-.45.37c-.11.16-.16.34-.16.54,0,.3.12.56.35.76s.57.3,1.01.3.83-.1,1.17-.29c.34-.19.59-.46.76-.79.12-.26.18-.64.18-1.14v-.42Z" style="fill:#6d6e71;"/><line x1="134.48" y1="147.81" x2="97.2" y2="147.81" style="fill:none; stroke:#bed7f0; stroke-miterlimit:10; stroke-width:2px;"/><circle cx="147.35" cy="147.81" r="6.83" style="fill:none; stroke:#58595b; stroke-miterlimit:10; stroke-width:.5px;"/><line x1="116.9" y1="167.87" x2="154.18" y2="167.87" style="fill:none; stroke:#bed7f0; stroke-miterlimit:10; stroke-width:2px;"/><circle cx="104.03" cy="167.87" r="6.83" style="fill:none; stroke:#58595b; stroke-miterlimit:10; stroke-width:.5px;"/><line x1="116.9" y1="126.53" x2="154.18" y2="126.53" style="fill:none; stroke:#bed7f0; stroke-miterlimit:10; stroke-width:2px;"/><circle cx="104.03" cy="126.53" r="6.83" style="fill:none; stroke:#58595b; stroke-miterlimit:10; stroke-width:.5px;"/><line x1="210.44" y1="122.92" x2="175.57" y2="122.92" style="fill:none; stroke:#bed7f0; stroke-linecap:round; stroke-miterlimit:10; stroke-width:2px;"/><polygon points="179.22 118.11 177.17 122.92 179.22 127.73 167.81 122.92 179.22 118.11" style="fill:#bed7f0;"/><path d="M166.82,25.13v-8.59h5.89v1.45h-4.15v2.03h3.59v1.45h-3.59v3.65h-1.73Z" style="fill:#f15a29;"/><path d="M173.75,21.93c0-.55.13-1.08.4-1.59s.65-.9,1.15-1.17,1.05-.4,1.66-.4c.94,0,1.71.31,2.31.92s.9,1.38.9,2.32-.3,1.72-.91,2.34-1.37.93-2.29.93c-.57,0-1.11-.13-1.63-.39s-.91-.64-1.18-1.13-.4-1.1-.4-1.82ZM175.43,22.02c0,.62.15,1.09.44,1.42s.65.49,1.08.49.79-.16,1.08-.49.44-.8.44-1.43-.15-1.08-.44-1.41-.65-.49-1.08-.49-.79.16-1.08.49-.44.8-.44,1.42Z" style="fill:#f15a29;"/><path d="M186.88,20.74l-1.62.29c-.05-.32-.18-.57-.37-.73s-.44-.25-.75-.25c-.41,0-.74.14-.98.42s-.37.76-.37,1.42c0,.74.12,1.26.37,1.56s.58.46,1,.46c.31,0,.57-.09.77-.27s.34-.48.42-.92l1.62.28c-.17.74-.49,1.3-.97,1.68s-1.12.57-1.92.57c-.91,0-1.64-.29-2.18-.86s-.81-1.37-.81-2.38.27-1.83.81-2.4,1.28-.86,2.2-.86c.76,0,1.36.16,1.81.49s.77.82.96,1.49Z" style="fill:#f15a29;"/><path d="M192.23,25.13v-.93c-.23.33-.52.59-.89.79s-.76.29-1.17.29-.79-.09-1.12-.28-.57-.44-.72-.77-.22-.79-.22-1.38v-3.94h1.65v2.86c0,.88.03,1.41.09,1.61s.17.35.33.47.36.17.61.17c.28,0,.53-.08.76-.23s.38-.35.46-.57.12-.79.12-1.68v-2.62h1.65v6.22h-1.53Z" style="fill:#f15a29;"/><path d="M194.88,23.35l1.65-.25c.07.32.21.56.43.73s.52.25.9.25c.43,0,.75-.08.96-.23.14-.11.22-.26.22-.44,0-.12-.04-.23-.12-.31-.08-.08-.27-.15-.55-.22-1.33-.29-2.17-.56-2.53-.8-.49-.34-.74-.8-.74-1.4,0-.54.21-.99.64-1.36s1.09-.55,1.98-.55,1.48.14,1.9.42.7.69.86,1.23l-1.55.29c-.07-.24-.19-.43-.38-.56s-.45-.19-.79-.19c-.43,0-.74.06-.93.18-.12.09-.19.2-.19.33,0,.12.05.22.16.3.15.11.66.26,1.54.46s1.49.44,1.84.73c.34.29.52.7.52,1.22,0,.57-.24,1.06-.71,1.47s-1.18.62-2.12.62c-.85,0-1.52-.17-2.01-.52s-.82-.81-.97-1.4Z" style="fill:#f15a29;"/><path d="M205.09,21.93c0-.55.13-1.08.4-1.59s.65-.9,1.15-1.17,1.05-.4,1.66-.4c.94,0,1.71.31,2.31.92s.9,1.38.9,2.32-.3,1.72-.91,2.34-1.37.93-2.29.93c-.57,0-1.11-.13-1.63-.39s-.91-.64-1.18-1.13-.4-1.1-.4-1.82ZM206.78,22.02c0,.62.15,1.09.44,1.42s.65.49,1.08.49.79-.16,1.08-.49.44-.8.44-1.43-.15-1.08-.44-1.41-.65-.49-1.08-.49-.79.16-1.08.49-.44.8-.44,1.42Z" style="fill:#f15a29;"/><path d="M218.46,25.13h-1.65v-3.18c0-.67-.04-1.11-.11-1.3s-.18-.35-.34-.46-.35-.16-.57-.16c-.29,0-.54.08-.77.23s-.38.36-.47.62-.13.73-.13,1.43v2.82h-1.65v-6.22h1.53v.91c.54-.7,1.23-1.05,2.05-1.05.36,0,.7.07,1,.2s.53.3.68.5.26.43.32.69.09.63.09,1.11v3.87Z" style="fill:#f15a29;"/><path d="M168.37,38.13h-1.65v-6.22h1.53v.88c.26-.42.5-.69.71-.83s.45-.2.71-.2c.38,0,.74.1,1.08.31l-.51,1.44c-.28-.18-.54-.27-.77-.27s-.43.06-.59.19-.29.36-.38.69-.14,1.03-.14,2.09v1.92Z" style="fill:#f15a29;"/><path d="M175.07,36.15l1.64.28c-.21.6-.54,1.06-1,1.37s-1.02.47-1.71.47c-1.08,0-1.88-.35-2.4-1.06-.41-.57-.62-1.28-.62-2.14,0-1.03.27-1.84.81-2.42s1.22-.88,2.04-.88c.93,0,1.66.31,2.19.92s.79,1.55.77,2.81h-4.12c.01.49.14.87.4,1.14s.57.41.95.41c.26,0,.47-.07.65-.21s.31-.37.4-.68ZM175.16,34.48c-.01-.48-.13-.84-.37-1.09s-.52-.37-.86-.37c-.36,0-.66.13-.89.39s-.35.62-.35,1.07h2.46Z" style="fill:#f15a29;"/><path d="M179.37,33.8l-1.49-.27c.17-.6.46-1.05.87-1.34s1.02-.43,1.83-.43c.73,0,1.28.09,1.64.26s.61.39.76.66.22.76.22,1.47l-.02,1.92c0,.55.03.95.08,1.21s.15.54.3.83h-1.63c-.04-.11-.1-.27-.16-.49-.03-.1-.05-.16-.06-.19-.28.27-.58.48-.9.62-.32.14-.66.21-1.03.21-.64,0-1.15-.17-1.51-.52s-.55-.79-.55-1.32c0-.35.08-.67.25-.94s.4-.49.71-.63.74-.27,1.31-.38c.77-.14,1.3-.28,1.6-.4v-.16c0-.32-.08-.54-.23-.68s-.45-.2-.88-.2c-.29,0-.52.06-.69.17s-.3.32-.4.61ZM181.57,35.14c-.21.07-.54.15-1,.25-.46.1-.76.19-.9.29-.21.15-.32.35-.32.58s.09.43.26.6.39.25.66.25c.3,0,.58-.1.85-.29.2-.15.33-.33.39-.54.04-.14.06-.41.06-.8v-.33Z" style="fill:#f15a29;"/><path d="M190.52,38.13h-1.53v-.91c-.25.36-.55.62-.9.79s-.69.26-1.05.26c-.71,0-1.33-.29-1.84-.86s-.76-1.38-.76-2.41.25-1.86.74-2.41,1.12-.82,1.88-.82c.7,0,1.3.29,1.8.87v-3.09h1.65v8.59ZM186.13,34.88c0,.66.09,1.14.28,1.44.27.43.64.64,1.11.64.38,0,.7-.16.97-.48s.4-.8.4-1.44c0-.71-.13-1.23-.39-1.54s-.59-.47-.99-.47-.72.16-.98.47-.4.77-.4,1.39Z" style="fill:#f15a29;"/><path d="M195.1,34.93c0-.55.13-1.08.4-1.59s.65-.9,1.15-1.17,1.05-.4,1.66-.4c.94,0,1.71.31,2.31.92s.9,1.38.9,2.32-.3,1.72-.91,2.34-1.37.93-2.29.93c-.57,0-1.11-.13-1.63-.39s-.91-.64-1.18-1.13-.4-1.1-.4-1.82ZM196.79,35.02c0,.62.15,1.09.44,1.42s.65.49,1.08.49.79-.16,1.08-.49.44-.8.44-1.43-.15-1.08-.44-1.41-.65-.49-1.08-.49-.79.16-1.08.49-.44.8-.44,1.42Z" style="fill:#f15a29;"/><path d="M202.76,31.9h1.54v.91c.2-.31.47-.57.81-.76s.72-.29,1.13-.29c.72,0,1.34.28,1.84.85s.76,1.36.76,2.37-.25,1.85-.76,2.42-1.12.86-1.85.86c-.34,0-.66-.07-.93-.21s-.57-.37-.88-.7v3.13h-1.65v-8.59ZM204.39,34.91c0,.7.14,1.22.42,1.55s.62.5,1.01.5.7-.15.96-.46.38-.81.38-1.51c0-.65-.13-1.14-.39-1.45s-.59-.47-.97-.47-.74.16-1,.47-.4.77-.4,1.38Z" style="fill:#f15a29;"/><path d="M213.74,36.15l1.64.28c-.21.6-.54,1.06-1,1.37s-1.02.47-1.71.47c-1.08,0-1.88-.35-2.4-1.06-.41-.57-.62-1.28-.62-2.14,0-1.03.27-1.84.81-2.42s1.22-.88,2.04-.88c.93,0,1.66.31,2.19.92s.79,1.55.77,2.81h-4.12c.01.49.14.87.4,1.14s.57.41.95.41c.26,0,.47-.07.65-.21s.31-.37.4-.68ZM213.84,34.48c-.01-.48-.13-.84-.37-1.09s-.52-.37-.86-.37c-.36,0-.66.13-.89.39s-.35.62-.35,1.07h2.46Z" style="fill:#f15a29;"/><path d="M218.39,38.13h-1.65v-6.22h1.53v.88c.26-.42.5-.69.71-.83s.45-.2.71-.2c.38,0,.74.1,1.08.31l-.51,1.44c-.28-.18-.54-.27-.77-.27s-.43.06-.59.19-.29.36-.38.69-.14,1.03-.14,2.09v1.92Z" style="fill:#f15a29;"/><path d="M222.71,33.8l-1.49-.27c.17-.6.46-1.05.87-1.34s1.02-.43,1.83-.43c.73,0,1.28.09,1.64.26s.61.39.76.66.22.76.22,1.47l-.02,1.92c0,.55.03.95.08,1.21s.15.54.3.83h-1.63c-.04-.11-.1-.27-.16-.49-.03-.1-.05-.16-.06-.19-.28.27-.58.48-.9.62s-.66.21-1.03.21c-.64,0-1.15-.17-1.51-.52s-.55-.79-.55-1.32c0-.35.08-.67.25-.94s.4-.49.71-.63.74-.27,1.31-.38c.77-.14,1.3-.28,1.6-.4v-.16c0-.32-.08-.54-.23-.68s-.45-.2-.88-.2c-.29,0-.52.06-.69.17s-.3.32-.4.61ZM224.92,35.14c-.21.07-.54.15-1,.25s-.76.19-.9.29c-.21.15-.32.35-.32.58s.09.43.26.6.39.25.66.25c.3,0,.58-.1.85-.29.2-.15.33-.33.39-.54.04-.14.06-.41.06-.8v-.33Z" style="fill:#f15a29;"/><path d="M231.01,31.9v1.31h-1.12v2.51c0,.51.01.8.03.89s.07.15.15.21.17.08.28.08c.15,0,.37-.05.66-.16l.14,1.28c-.38.16-.82.25-1.3.25-.3,0-.56-.05-.8-.15s-.41-.23-.52-.39-.19-.37-.23-.64c-.04-.19-.05-.58-.05-1.16v-2.71h-.76v-1.31h.76v-1.24l1.65-.96v2.2h1.12Z" style="fill:#f15a29;"/><path d="M232.15,31.06v-1.52h1.65v1.52h-1.65ZM232.15,38.13v-6.22h1.65v6.22h-1.65Z" style="fill:#f15a29;"/><path d="M235.11,34.93c0-.55.13-1.08.4-1.59s.65-.9,1.15-1.17,1.05-.4,1.66-.4c.94,0,1.71.31,2.31.92s.9,1.38.9,2.32-.3,1.72-.91,2.34-1.37.93-2.29.93c-.57,0-1.11-.13-1.63-.39s-.91-.64-1.18-1.13-.4-1.1-.4-1.82ZM236.79,35.02c0,.62.15,1.09.44,1.42s.65.49,1.08.49.79-.16,1.08-.49.44-.8.44-1.43-.15-1.08-.44-1.41-.65-.49-1.08-.49-.79.16-1.08.49-.44.8-.44,1.42Z" style="fill:#f15a29;"/><path d="M248.48,38.13h-1.65v-3.18c0-.67-.04-1.11-.11-1.3s-.18-.35-.34-.46-.35-.16-.57-.16c-.29,0-.54.08-.77.23s-.38.36-.47.62-.13.73-.13,1.43v2.82h-1.65v-6.22h1.53v.91c.54-.7,1.23-1.05,2.05-1.05.36,0,.7.07,1,.2s.53.3.68.5.26.43.32.69.09.63.09,1.11v3.87Z" style="fill:#f15a29;"/><path d="M249.57,36.35l1.65-.25c.07.32.21.56.43.73s.52.25.9.25c.43,0,.75-.08.96-.23.14-.11.22-.26.22-.44,0-.12-.04-.23-.12-.31-.08-.08-.27-.15-.55-.22-1.33-.29-2.17-.56-2.53-.8-.49-.34-.74-.8-.74-1.4,0-.54.21-.99.64-1.36s1.09-.55,1.98-.55,1.48.14,1.9.42.7.69.86,1.23l-1.55.29c-.07-.24-.19-.43-.38-.56s-.45-.19-.79-.19c-.43,0-.74.06-.93.18-.12.09-.19.2-.19.33,0,.12.05.22.16.3.15.11.66.26,1.54.46s1.49.44,1.84.73c.34.29.52.7.52,1.22,0,.57-.24,1.06-.71,1.47s-1.18.62-2.12.62c-.85,0-1.52-.17-2.01-.52s-.82-.81-.97-1.4Z" style="fill:#f15a29;"/><path d="M256.82,38.13v-1.65h1.65v1.65h-1.65Z" style="fill:#f15a29;"/><path d="M260.15,38.13v-1.65h1.65v1.65h-1.65Z" style="fill:#f15a29;"/><path d="M263.49,38.13v-1.65h1.65v1.65h-1.65Z" style="fill:#f15a29;"/><path d="M183.21,146.81v-1.65h1.65v1.65h-1.65Z" style="fill:#f15a29;"/><path d="M186.54,146.81v-1.65h1.65v1.65h-1.65Z" style="fill:#f15a29;"/><path d="M189.87,146.81v-1.65h1.65v1.65h-1.65Z" style="fill:#f15a29;"/><path d="M194.37,146.81l-1.97-6.22h1.6l1.17,4.08,1.07-4.08h1.59l1.04,4.08,1.19-4.08h1.62l-2,6.22h-1.58l-1.07-4-1.05,4h-1.6Z" style="fill:#f15a29;"/><path d="M202.54,139.74v-1.52h1.65v1.52h-1.65ZM202.54,146.81v-6.22h1.65v6.22h-1.65Z" style="fill:#f15a29;"/><path d="M208.73,140.58v1.31h-1.12v2.51c0,.51.01.8.03.89s.07.15.15.21.17.08.28.08c.15,0,.37-.05.66-.16l.14,1.28c-.38.16-.82.25-1.3.25-.3,0-.56-.05-.8-.15s-.41-.23-.52-.39-.19-.37-.23-.64c-.04-.19-.05-.58-.05-1.16v-2.71h-.76v-1.31h.76v-1.24l1.65-.96v2.2h1.12Z" style="fill:#f15a29;"/><path d="M211.51,138.22v3.16c.53-.62,1.17-.93,1.9-.93.38,0,.72.07,1.03.21s.53.32.69.54.26.46.32.73.08.68.08,1.24v3.65h-1.65v-3.29c0-.65-.03-1.07-.09-1.24s-.17-.32-.33-.42-.36-.16-.59-.16c-.27,0-.52.07-.73.2s-.37.33-.47.6-.15.66-.15,1.19v3.12h-1.65v-8.59h1.65Z" style="fill:#f15a29;"/><path d="M227.85,146.81h-1.89l-.75-1.95h-3.43l-.71,1.95h-1.84l3.35-8.59h1.83l3.44,8.59ZM224.66,143.41l-1.18-3.19-1.16,3.19h2.34Z" style="fill:#f15a29;"/><path d="M230.33,146.81h-1.65v-6.22h1.53v.88c.26-.42.5-.69.71-.83s.45-.2.71-.2c.38,0,.74.1,1.08.31l-.51,1.44c-.28-.18-.54-.27-.77-.27s-.43.06-.59.19-.29.36-.38.69-.14,1.03-.14,2.09v1.92Z" style="fill:#f15a29;"/><path d="M238.85,142.42l-1.62.29c-.05-.32-.18-.57-.37-.73s-.44-.25-.75-.25c-.41,0-.74.14-.98.42s-.37.76-.37,1.42c0,.74.12,1.26.37,1.56s.58.46,1,.46c.31,0,.57-.09.77-.27s.34-.48.42-.92l1.62.28c-.17.74-.49,1.3-.97,1.68s-1.12.57-1.92.57c-.91,0-1.64-.29-2.18-.86s-.81-1.37-.81-2.38.27-1.83.81-2.4,1.28-.86,2.2-.86c.76,0,1.36.16,1.81.49s.77.82.96,1.49Z" style="fill:#f15a29;"/><path d="M244.11,143.65v-1.45h3.74v3.42c-.36.35-.89.66-1.58.93s-1.39.4-2.09.4c-.9,0-1.68-.19-2.35-.57s-1.17-.92-1.51-1.62-.5-1.46-.5-2.29c0-.89.19-1.69.56-2.38s.92-1.23,1.65-1.6c.55-.29,1.24-.43,2.06-.43,1.07,0,1.9.22,2.5.67s.99,1.07,1.16,1.85l-1.72.32c-.12-.42-.35-.75-.68-1s-.75-.37-1.25-.37c-.76,0-1.36.24-1.81.72s-.67,1.19-.67,2.14c0,1.02.23,1.78.68,2.29s1.05.76,1.78.76c.36,0,.73-.07,1.09-.21s.68-.32.94-.52v-1.09h-1.99Z" style="fill:#f15a29;"/><path d="M249.39,146.81v-8.59h1.73v8.59h-1.73Z" style="fill:#f15a29;"/><path d="M252.34,144.01l1.69-.16c.1.57.31.98.62,1.25s.73.4,1.26.4c.56,0,.98-.12,1.26-.35s.42-.51.42-.83c0-.2-.06-.38-.18-.52s-.33-.27-.62-.37c-.2-.07-.67-.2-1.39-.38-.93-.23-1.58-.51-1.96-.85-.53-.47-.79-1.05-.79-1.73,0-.44.12-.85.37-1.23s.61-.67,1.07-.87,1.03-.3,1.69-.3c1.08,0,1.89.24,2.43.71s.83,1.1.86,1.89l-1.73.08c-.07-.44-.23-.76-.48-.95s-.61-.29-1.1-.29-.9.1-1.18.31c-.18.13-.28.31-.28.53,0,.2.09.38.26.52.22.18.75.38,1.59.57s1.47.41,1.87.62.72.5.95.87.34.83.34,1.37c0,.49-.14.95-.41,1.38s-.66.75-1.16.96-1.12.31-1.87.31c-1.09,0-1.92-.25-2.5-.75s-.93-1.23-1.04-2.19Z" style="fill:#f15a29;"/><path d="M263.77,142.56c0-.88.13-1.61.39-2.2.2-.44.46-.83.8-1.18s.71-.61,1.11-.77c.54-.23,1.15-.34,1.85-.34,1.27,0,2.28.39,3.04,1.18s1.14,1.88,1.14,3.28-.38,2.47-1.13,3.25-1.76,1.17-3.02,1.17-2.29-.39-3.05-1.17-1.13-1.85-1.13-3.22ZM265.55,142.5c0,.97.22,1.71.67,2.21s1.02.75,1.71.75,1.26-.25,1.7-.75.67-1.25.67-2.24-.22-1.72-.65-2.2-1-.73-1.72-.73-1.29.25-1.73.74-.66,1.23-.66,2.22Z" style="fill:#f15a29;"/><path d="M279.1,146.81h-1.65v-3.18c0-.67-.04-1.11-.11-1.3s-.18-.35-.34-.46-.35-.16-.57-.16c-.29,0-.54.08-.77.23s-.38.36-.47.62-.13.73-.13,1.43v2.82h-1.65v-6.22h1.53v.91c.54-.7,1.23-1.05,2.05-1.05.36,0,.7.07,1,.2s.53.3.68.5.26.43.32.69.09.63.09,1.11v3.87Z" style="fill:#f15a29;"/><path d="M280.77,146.81v-8.59h1.65v8.59h-1.65Z" style="fill:#f15a29;"/><path d="M284.1,139.74v-1.52h1.65v1.52h-1.65ZM284.1,146.81v-6.22h1.65v6.22h-1.65Z" style="fill:#f15a29;"/><path d="M293.1,146.81h-1.65v-3.18c0-.67-.04-1.11-.11-1.3s-.18-.35-.34-.46-.35-.16-.57-.16c-.29,0-.54.08-.77.23s-.38.36-.47.62-.13.73-.13,1.43v2.82h-1.65v-6.22h1.53v.91c.54-.7,1.23-1.05,2.05-1.05.36,0,.7.07,1,.2s.53.3.68.5.26.43.32.69.09.63.09,1.11v3.87Z" style="fill:#f15a29;"/><path d="M298.37,144.82l1.64.28c-.21.6-.54,1.06-1,1.37s-1.02.47-1.71.47c-1.08,0-1.88-.35-2.4-1.06-.41-.57-.62-1.28-.62-2.14,0-1.03.27-1.84.81-2.42s1.22-.88,2.04-.88c.93,0,1.66.31,2.19.92s.79,1.55.77,2.81h-4.12c.01.49.14.87.4,1.14s.57.41.95.41c.26,0,.47-.07.65-.21s.31-.37.4-.68ZM298.47,143.16c-.01-.48-.13-.84-.37-1.09s-.52-.37-.86-.37c-.36,0-.66.13-.89.39s-.35.62-.35,1.07h2.46Z" style="fill:#f15a29;"/></svg>